<svg xmlns="http://www.w3.org/2000/svg" width="32" height="32" viewBox="0 0 32 32"><path d="M20.679 26.375L13.556 29.455C11.653 30.278 9.529 28.882 9.529 26.808L9.529 7.722C9.529 6.453 10.334 5.323 11.535 4.911L18.651 2.464C20.523 1.821 22.471 3.212 22.471 5.191L22.471 23.646C22.471 24.832 21.767 25.904 20.678 26.375L20.679 26.375ZM20.634 13.65C20.439 13.724 20.227 13.765 20.006 13.765L20.006 19.7C20.006 20.072 19.702 20.376 19.33 20.376L12.301 20.376C11.928 20.376 11.624 20.072 11.624 19.7L11.624 12.894C11.624 12.398 12.028 11.995 12.524 11.995L18.235 11.995C18.235 11.773 18.276 11.562 18.35 11.366L12.524 11.366C11.681 11.366 10.996 12.052 10.996 12.894L10.996 19.7C10.996 20.419 11.581 21.004 12.301 21.004L19.33 21.004C20.049 21.004 20.634 20.419 20.634 19.7L20.634 13.65ZM21.004 11.995C21.004 11.443 20.557 10.996 20.006 10.996C19.454 10.996 19.006 11.443 19.006 11.995C19.006 12.546 19.454 12.994 20.006 12.994C20.557 12.994 21.004 12.547 21.004 11.995Z" fill="#fff"/></svg>
